<?xml version="1.0" encoding="utf-8"?>
<!-- Generator: Adobe Illustrator 16.0.0, SVG Export Plug-In . SVG Version: 6.00 Build 0)  -->
<!DOCTYPE svg PUBLIC "-//W3C//DTD SVG 1.1//EN" "http://www.w3.org/Graphics/SVG/1.1/DTD/svg11.dtd">
<svg version="1.1" id="Ebene_1" xmlns="http://www.w3.org/2000/svg" xmlns:xlink="http://www.w3.org/1999/xlink" x="0px" y="0px"
	 width="270px" height="100.25px" viewBox="52.371 62.5 270 100.25" enable-background="new 52.371 62.5 270 100.25"
	 xml:space="preserve">
<g id="Ebene_1_1_">
	<g enable-background="new    ">
		<path fill="#585857" d="M167.021,95.771h1.663v0.806c0,3.591,0.91,5.521,2.089,6.593c1.181,1.072,2.682,1.287,3.968,1.287
			c3.86,0,6.058-1.607,6.058-6.379c0-8.041-13.775-10.239-13.775-19.566c0-5.414,2.787-8.521,7.719-8.521
			c5.093,0,7.771,3.377,7.771,9.595v0.857h-1.715v-0.857c0-5.414-1.981-7.88-6.058-7.88c-3.859,0-6.057,1.982-6.057,6.646
			c0,8.576,13.829,10.292,13.829,19.564c0,5.361-2.786,8.203-7.771,8.203c-5.146,0-7.719-3.163-7.719-9.542L167.021,95.771
			L167.021,95.771z"/>
		<path fill="#585857" d="M198.648,70.041v1.662h-11.313V87.25h9.703v1.661h-9.703v15.599h11.313v1.662h-12.974V70.041H198.648z"/>
		<path fill="#585857" d="M202.294,106.171v-36.13h5.95c5.521,0,7.986,3.163,7.986,9.436c0,3.108-0.645,5.468-1.875,7.021
			c-0.59,0.697-1.182,1.181-1.984,1.607c0.751,0.375,1.395,0.857,1.984,1.556c1.23,1.556,1.875,3.913,1.875,7.075
			c0,6.271-2.465,9.435-7.986,9.435H202.294z M204.01,71.704V87.25h4.234c4.449,0,6.271-2.252,6.271-7.772
			c0-5.575-1.769-7.772-6.271-7.772L204.01,71.704L204.01,71.704z M204.01,88.911v15.599h4.234c4.503,0,6.271-2.197,6.271-7.771
			s-1.82-7.826-6.271-7.826L204.01,88.911L204.01,88.911z"/>
		<path fill="#585857" d="M233.652,95.129h-9.541l-2.467,11.042h-1.717l2.844-12.543v-0.161l5.467-23.426h1.34l8.256,36.13h-1.715
			L233.652,95.129z M224.54,93.467h8.737l-4.396-18.869L224.54,93.467z"/>
		<path fill="#585857" d="M239.658,95.771h1.661v0.806c0,3.591,0.911,5.521,2.091,6.593s2.68,1.287,3.967,1.287
			c3.859,0,6.057-1.607,6.057-6.379c0-8.041-13.773-10.239-13.773-19.566c0-5.414,2.787-8.521,7.719-8.521
			c5.092,0,7.771,3.377,7.771,9.595v0.857h-1.717v-0.857c0-5.414-1.98-7.88-6.057-7.88c-3.859,0-6.059,1.982-6.059,6.646
			c0,8.576,13.83,10.292,13.83,19.564c0,5.361-2.787,8.203-7.771,8.203c-5.146,0-7.719-3.163-7.719-9.542V95.771z"/>
		<path fill="#585857" d="M256.436,69.988h15.762v1.716h-7.076v34.415h-1.661V71.704h-7.021v-1.716H256.436z"/>
		<path fill="#585857" d="M277.342,106.171h-1.662v-36.13h1.662V106.171z"/>
		<path fill="#585857" d="M295.085,95.129h-9.542l-2.465,11.042h-1.716l2.841-12.543v-0.161l5.468-23.426h1.34l8.256,36.13h-1.716
			L295.085,95.129z M285.973,93.467h8.736l-4.396-18.869L285.973,93.467z"/>
		<path fill="#585857" d="M316.527,106.171l-12.49-30.93v30.93h-1.715v-36.13h1.446l12.437,30.932V70.041h1.715v36.13H316.527z"/>
	</g>
	<g enable-background="new    ">
		<path fill="#585857" d="M184.557,155.258h-4.881v-11.199c0-3.34-1.592-4.982-4.829-4.982h-3.03v16.184h-4.83v-37.864h7.858
			c6.524,0,9.607,3.751,9.607,10.792c0,3.494-0.771,6.164-2.263,7.963c-0.051,0.051-0.152,0.152-0.203,0.258
			c-0.104,0.102-0.205,0.205-0.311,0.256c1.852,1.799,2.877,4.264,2.877,7.398v11.196L184.557,155.258L184.557,155.258z
			 M171.816,134.195h3.03c1.284,0,2.21-0.154,2.726-0.463c0.462-0.311,0.77-0.566,0.924-0.719c0.771-0.979,1.131-2.57,1.131-4.83
			c0-2.52-0.411-4.01-1.182-4.883c-0.822-0.82-2.006-1.025-3.599-1.025h-3.03V134.195z"/>
		<path fill="#585857" d="M188.408,117.394h4.83v27.796c0,2.619,0.563,3.955,1.335,4.572c0.771,0.668,1.644,0.668,2.312,0.668
			s1.542,0,2.313-0.668c0.771-0.617,1.336-1.953,1.336-4.572v-27.796h4.829v27.796c0,3.133-0.668,5.549-2.058,7.244
			c-1.025,1.387-2.979,2.822-6.422,2.822c-3.439,0-5.395-1.438-6.422-2.822c-1.387-1.695-2.055-4.111-2.055-7.244L188.408,117.394
			L188.408,117.394z"/>
		<path fill="#585857" d="M221.339,133.938v-16.492h4.88v37.865h-4.88v-16.492h-7.296v16.492h-4.829v-37.865h4.829v16.492H221.339z"
			/>
		<path fill="#585857" d="M240.295,155.258l-5.24-18.135v18.135h-4.83v-37.864h4.266l7.654,26.665l7.604-26.665h4.264v37.864h-4.829
			v-18.135l-5.239,18.135H240.295z"/>
		<path fill="#585857" d="M271.837,144.727h-6.576l-2.415,10.584h-4.981l8.731-37.865h3.854l8.837,37.865h-5.034L271.837,144.727z
			 M266.391,139.896h4.316l-2.158-9.299L266.391,139.896z"/>
		<path fill="#585857" d="M294.389,155.258l-9.246-22.912v22.912h-4.83v-37.864h4.061l9.248,22.915v-22.915h4.879v37.864H294.389z"
			/>
		<path fill="#585857" d="M316.222,155.258l-9.246-22.912v22.912h-4.83v-37.864h4.06l9.248,22.915v-22.915h4.881v37.864H316.222z"/>
	</g>
</g>
<g id="Umlaute">
	<circle id="XMLID_75_" fill="#585857" cx="196.869" cy="119.926" r="2.48"/>
	<circle id="XMLID_73_" fill="#585857" cx="196.869" cy="126.675" r="2.479"/>
</g>
<radialGradient id="SVGID_1_" cx="-5254.7183" cy="728.2266" r="49.2505" gradientTransform="matrix(1 0 0 1 5357.7598 -615.5791)" gradientUnits="userSpaceOnUse">
	<stop  offset="0" style="stop-color:#BEBEBE"/>
	<stop  offset="1" style="stop-color:#585857"/>
</radialGradient>
<path fill="url(#SVGID_1_)" d="M152.562,113.523c-0.177-0.389-0.558-0.663-1.006-0.687l-3.326-17.527
	c0.262-0.214,0.432-0.536,0.432-0.899c0-0.646-0.524-1.169-1.169-1.169c-0.006,0-0.012,0.001-0.016,0.001L136.05,76.794
	c0.229-0.212,0.374-0.515,0.374-0.854c0-0.645-0.523-1.169-1.168-1.169c-0.371,0-0.696,0.177-0.912,0.444l-14.824-9.686
	c0.059-0.139,0.092-0.293,0.092-0.453c0-0.646-0.524-1.169-1.17-1.169c-0.627,0-1.133,0.493-1.163,1.112l-26.339-0.516
	c-0.073-0.373-0.328-0.68-0.668-0.833h-0.959c-0.403,0.184-0.688,0.589-0.688,1.063c0,0.164,0.034,0.32,0.096,0.462l-21.385,13.34
	c-0.213-0.222-0.511-0.362-0.842-0.362c-0.646,0-1.17,0.523-1.17,1.169c0,0.361,0.166,0.679,0.423,0.894l-9.284,15.295
	c-0.069-0.014-0.14-0.021-0.213-0.021c-0.646,0-1.17,0.523-1.17,1.17c0,0.488,0.3,0.905,0.726,1.08l-1.398,19.767
	c-0.398,0.061-0.729,0.321-0.888,0.675v0.959c0.184,0.404,0.588,0.688,1.063,0.688c0.062,0,0.122-0.009,0.182-0.019l6.039,16.729
	c-0.479,0.146-0.827,0.588-0.827,1.111c0,0.646,0.522,1.17,1.169,1.17c0.309,0,0.585-0.119,0.795-0.314l11.391,13.648
	c-0.154,0.199-0.25,0.445-0.25,0.717c0,0.646,0.523,1.17,1.17,1.17c0.389,0,0.73-0.191,0.943-0.484l12.835,5.607
	c-0.013,0.066-0.021,0.137-0.021,0.209c0,0.646,0.523,1.168,1.17,1.168c0.499,0,0.924-0.314,1.091-0.759l15.455,0.935
	c0.062,0.396,0.32,0.729,0.675,0.889h0.96c0.402-0.184,0.687-0.59,0.687-1.063c0-0.017-0.004-0.029-0.005-0.047l21.098-6.105
	c0.21,0.197,0.491,0.32,0.803,0.32c0.646,0,1.17-0.521,1.17-1.168c0-0.215-0.063-0.414-0.163-0.586l15.497-18.615
	c0.119,0.043,0.246,0.07,0.381,0.07c0.645,0,1.169-0.521,1.169-1.17c0-0.441-0.248-0.82-0.609-1.021l4.068-17.077
	c0.017,0.002,0.033,0.006,0.05,0.006c0.474,0,0.879-0.281,1.062-0.688L152.562,113.523L152.562,113.523z M147.491,95.582
	c0.095,0,0.186-0.016,0.272-0.037l3.023,15.934l-4.616-11.313c0.39-0.283,0.646-0.738,0.646-1.256c0-0.556-0.293-1.04-0.729-1.316
	l1.123-2.05C147.301,95.564,147.394,95.582,147.491,95.582z M146.764,95.32l-1.139,2.076c-0.118-0.027-0.239-0.047-0.366-0.047
	c-0.174,0-0.338,0.035-0.494,0.087l-8.352-12.048c0.001,0,0.001-0.002,0.001-0.002l10.286,8.168
	c-0.231,0.213-0.379,0.516-0.379,0.855C146.321,94.78,146.496,95.104,146.764,95.32z M114.593,151.916l-13.787,3.482
	c-0.045-0.194-0.125-0.377-0.233-0.535l27.085-23.582c0.058,0.054,0.118,0.104,0.182,0.148l-11.283,18.902
	c-0.131-0.033-0.267-0.061-0.408-0.061c-0.861,0-1.561,0.697-1.561,1.561C114.585,151.861,114.592,151.889,114.593,151.916z
	 M85.412,151.672l8.556-11.643c0.16,0.057,0.329,0.093,0.51,0.093c0.019,0,0.034-0.005,0.054-0.006l3.767,14.438
	c-0.274,0.229-0.472,0.547-0.539,0.91L86,153.012c0.004-0.039,0.013-0.076,0.013-0.117
	C86.013,152.396,85.773,151.957,85.412,151.672z M60.168,101.723l10.814-7.891c0.244,0.299,0.593,0.502,0.992,0.559l0.421,19.642
	c-0.322,0.041-0.624,0.145-0.892,0.303l-11.117-11.492c0.038-0.115,0.064-0.237,0.064-0.365
	C60.451,102.188,60.342,101.928,60.168,101.723z M126.107,102.904l17.617-3.736c0.06,0.352,0.235,0.662,0.489,0.893l-14.133,27.332
	c-0.262-0.102-0.545-0.162-0.843-0.162c-0.054,0-0.104,0.014-0.156,0.018l-4.016-22.803c0.607-0.213,1.048-0.786,1.048-1.467
	C126.115,102.953,126.109,102.931,126.107,102.904z M126.938,129.932l-30.935,8.318c-0.085-0.418-0.338-0.771-0.684-0.994
	l6.509-18.658c0.188,0.048,0.38,0.082,0.583,0.082c0.937,0,1.739-0.557,2.112-1.353l22.533,11.418
	c-0.098,0.258-0.156,0.532-0.156,0.825C126.9,129.693,126.918,129.813,126.938,129.932z M87.121,84.195l11.928-8.002
	c0.261,0.228,0.595,0.371,0.964,0.385l-0.836,14.445c-0.702,0.035-1.319,0.377-1.726,0.897l-10.301-6.37
	c0.092-0.199,0.146-0.417,0.146-0.65C87.297,84.646,87.229,84.408,87.121,84.195z M116.452,78.652L100.907,91.67
	c-0.333-0.32-0.762-0.539-1.236-0.617l0.835-14.537c0.504-0.146,0.898-0.538,1.051-1.04l14.672,2.384l0,0
	C116.229,78.15,116.313,78.42,116.452,78.652z M123.105,103.543l-18.994,11.202c-0.422-0.448-1.012-0.731-1.674-0.74l-2.584-18.392
	c0.66-0.164,1.206-0.609,1.51-1.203l21.665,8.254c-0.021,0.102-0.031,0.207-0.031,0.313
	C122.997,103.179,123.038,103.367,123.105,103.543z M101.543,93.943c0.049-0.19,0.084-0.387,0.084-0.592
	c0-0.48-0.146-0.929-0.396-1.301l15.543-13.015c0.272,0.234,0.624,0.384,1.016,0.384c0.053,0,0.104-0.011,0.156-0.016l5.97,22.156
	c-0.296,0.135-0.539,0.358-0.702,0.639L101.543,93.943z M97.686,95.047c0.418,0.396,0.98,0.645,1.604,0.645
	c0.024,0,0.049-0.006,0.074-0.008l2.576,18.366c-0.873,0.178-1.563,0.849-1.785,1.706H74.943c-0.091-0.349-0.26-0.663-0.487-0.928
	L97.686,95.047z M74.092,114.48c-0.34-0.256-0.749-0.418-1.196-0.457l-0.42-19.642c0.695-0.13,1.226-0.724,1.264-1.448l23.229,0.607
	c0.034,0.415,0.166,0.802,0.388,1.127L74.092,114.48z M75.025,116.341c0-0.03-0.007-0.057-0.008-0.086h25.062
	c-0.001,0.029-0.009,0.057-0.009,0.086c0,0.912,0.525,1.694,1.289,2.079l-6.502,18.639c-0.122-0.031-0.25-0.055-0.382-0.055
	c-0.3,0-0.575,0.088-0.813,0.232l-19.007-19.646C74.889,117.23,75.025,116.803,75.025,116.341z M104.689,116.852
	c0.036-0.166,0.06-0.334,0.06-0.51c0-0.438-0.128-0.842-0.337-1.193l18.951-11.176c0.285,0.342,0.712,0.564,1.193,0.564
	c0.007,0,0.014-0.002,0.021-0.002l4.015,22.797c-0.545,0.159-1.009,0.5-1.312,0.967L104.689,116.852z M124.559,101.419
	c-0.056,0-0.105,0.011-0.158,0.017l-5.972-22.156c0.306-0.139,0.554-0.373,0.716-0.666l14.633,5.268
	c-0.049,0.15-0.081,0.307-0.081,0.473c0,0.453,0.197,0.857,0.506,1.145l-9.104,16.021
	C124.928,101.457,124.748,101.419,124.559,101.419z M134.004,83.432l-14.686-5.287c0.017-0.092,0.026-0.188,0.026-0.284
	c0-0.548-0.283-1.028-0.71-1.306l2.248-5.098c0.075,0.016,0.153,0.023,0.233,0.023c0.236,0,0.456-0.071,0.64-0.192l12.321,12.053
	C134.053,83.371,134.027,83.4,134.004,83.432z M118.178,76.355c-0.125-0.032-0.254-0.055-0.389-0.055
	c-0.494,0-0.929,0.232-1.214,0.59l-13.043-7.331l0,0l16.435,0.937c0.051,0.311,0.221,0.578,0.463,0.756L118.178,76.355z
	 M116.328,77.327c-0.005,0.013-0.008,0.027-0.014,0.041l-14.688-2.386c-0.014-0.471-0.236-0.883-0.576-1.16l1.258-3.415
	c0.033,0.003,0.066,0.009,0.104,0.009c0.356,0,0.672-0.162,0.887-0.416L116.328,77.327z M100.611,73.568
	c-0.168-0.063-0.351-0.103-0.538-0.103c-0.716,0-1.313,0.483-1.496,1.139l-11.521-1.108l14.322-3.707
	c0.104,0.195,0.259,0.357,0.451,0.469L100.611,73.568z M98.52,75.102c0.014,0.256,0.088,0.496,0.21,0.705L86.83,83.789
	c-0.252-0.248-0.587-0.402-0.958-0.436v-8.746c0.357-0.079,0.653-0.322,0.807-0.646L98.52,75.102z M86.87,85.966l10.315,6.381
	c-0.104,0.215-0.172,0.448-0.205,0.694l-23.3-0.607c-0.026-0.104-0.065-0.201-0.116-0.295l10.934-6.301
	c0.285,0.377,0.731,0.623,1.241,0.623C86.186,86.459,86.586,86.269,86.87,85.966z M85.372,83.389
	c-0.667,0.162-1.163,0.748-1.188,1.459l-15.405,2.13c-0.012-0.03-0.024-0.062-0.038-0.091l16.221-12.456
	c0.122,0.083,0.261,0.144,0.41,0.177V83.389z M68.846,87.473l15.404-2.13c0.005,0.018,0.011,0.034,0.016,0.051l-10.997,6.339
	c-0.28-0.271-0.659-0.438-1.079-0.438c-0.248,0-0.479,0.062-0.687,0.165l-2.888-3.375C68.746,87.91,68.827,87.701,68.846,87.473z
	 M71.091,91.745c-0.285,0.283-0.463,0.674-0.463,1.106c0,0.192,0.04,0.375,0.104,0.544l-10.65,7.771l7.257-12.675
	c0.11,0.035,0.228,0.059,0.349,0.059c0.199,0,0.385-0.055,0.549-0.143L71.091,91.745z M72.189,118.623l-2.053,21.868
	c-0.052,0.003-0.104,0.007-0.152,0.016l-8.029-17.848c0.213-0.206,0.346-0.491,0.354-0.81l8.305-4.451
	C70.928,118.015,71.498,118.475,72.189,118.623z M72.688,118.68c0,0,0,0,0.002,0c0.646,0,1.232-0.266,1.656-0.689l18.94,19.576
	c-0.228,0.271-0.37,0.617-0.37,0.998c0,0.097,0.012,0.188,0.028,0.281l-21.61,2.529c-0.091-0.369-0.354-0.669-0.701-0.809
	L72.688,118.68z M71.35,141.878l21.773-2.553c0.104,0.181,0.237,0.339,0.4,0.465l-8.554,11.64c-0.161-0.06-0.335-0.098-0.517-0.098
	c-0.459,0-0.867,0.203-1.152,0.52L71.229,142.2C71.283,142.1,71.326,141.993,71.35,141.878z M95.021,140.02
	c0.529-0.199,0.918-0.678,0.993-1.256l31.048-8.352c0.068,0.176,0.154,0.342,0.262,0.494l-27.104,23.599
	c-0.261-0.196-0.581-0.315-0.931-0.315c-0.192,0-0.374,0.039-0.544,0.104L95.021,140.02z M128.265,131.689
	c0.298,0.138,0.626,0.219,0.977,0.219c0.831,0,1.557-0.438,1.972-1.092l6.336,3.108c-0.055,0.159-0.091,0.327-0.091,0.507
	c0,0.243,0.062,0.475,0.162,0.68l-20.494,15.52c-0.037-0.031-0.07-0.064-0.108-0.091L128.265,131.689z M131.429,130.367
	c0.091-0.25,0.148-0.518,0.148-0.797c0-0.238-0.046-0.465-0.112-0.682l14.443-6.179c0.036,0.046,0.072,0.091,0.115,0.129
	l-6.43,10.146c-0.179-0.07-0.374-0.113-0.578-0.113c-0.505,0-0.946,0.242-1.231,0.611L131.429,130.367z M145.652,121.988
	c0,0.096,0.014,0.187,0.035,0.273l-14.418,6.17c-0.184-0.324-0.433-0.604-0.741-0.812l14.104-27.284
	c0.154,0.066,0.322,0.104,0.497,0.119l1.36,20.418C146.008,121.018,145.652,121.46,145.652,121.988z M135.505,77.082
	c0.039-0.009,0.075-0.021,0.112-0.035l10.947,15.764l-9.877-7.844c0.081-0.188,0.126-0.395,0.126-0.612
	c0-0.774-0.567-1.415-1.31-1.534L135.505,77.082L135.505,77.082z M135.256,85.914c0.282,0,0.543-0.082,0.771-0.213l8.294,11.97
	c-0.313,0.236-0.53,0.583-0.596,0.985l-17.72,3.758c-0.1-0.255-0.266-0.475-0.476-0.646l9.088-15.995
	C134.813,85.861,135.028,85.914,135.256,85.914z M135.005,77.082v5.738c-0.196,0.031-0.38,0.101-0.546,0.199l-12.254-11.993
	l11.887,4.856c-0.001,0.02-0.006,0.038-0.006,0.059C134.086,76.5,134.479,76.967,135.005,77.082z M132.918,74.863l-10.65-4.354
	c0.012-0.064,0.021-0.131,0.021-0.199c0-0.646-0.524-1.17-1.169-1.17c-0.094,0-0.184,0.014-0.271,0.034l-1.527-3.177L132.918,74.863
	z M117.559,65.835c0.215,0.25,0.527,0.411,0.883,0.411c0.144,0,0.278-0.029,0.405-0.076l1.554,3.225
	c-0.192,0.152-0.336,0.36-0.403,0.604l-15.838-0.903L117.559,65.835z M116.773,65.512l-13.311,3.236
	c-0.188-0.396-0.588-0.669-1.053-0.669c-0.41,0-0.771,0.211-0.979,0.53l-9.98-3.594L116.773,65.512z M89.795,65.904
	c0.434,0,0.809-0.238,1.01-0.59l10.453,3.764c-0.008,0.056-0.017,0.111-0.017,0.17c0,0.02,0.005,0.038,0.006,0.059l-14.53,3.76
	c-0.066-0.185-0.179-0.346-0.323-0.473l3.259-6.703C89.699,65.896,89.745,65.904,89.795,65.904z M89.018,65.604
	c0.049,0.045,0.103,0.086,0.159,0.123l-3.222,6.625c-0.104-0.033-0.216-0.055-0.332-0.055c-0.646,0-1.17,0.523-1.17,1.169
	c0,0.077,0.008,0.151,0.022,0.224L68.33,78.508L89.018,65.604z M67.662,79.347c0-0.04-0.008-0.077-0.012-0.114l16.744-4.998
	L68.436,86.49c-0.18-0.151-0.402-0.247-0.649-0.27l-0.767-5.836C67.398,80.191,67.662,79.801,67.662,79.347z M66.191,80.471
	c0.097,0.027,0.196,0.045,0.303,0.045c0.013,0,0.025-0.004,0.038-0.004l0.758,5.773c-0.45,0.163-0.772,0.588-0.772,1.096
	c0,0.186,0.045,0.355,0.121,0.513l-9.557,7.584L66.191,80.471z M57.419,96.682c0-0.248-0.078-0.478-0.21-0.666l9.614-7.631
	l-7.407,12.938c-0.044-0.007-0.088-0.014-0.134-0.014s-0.089,0.007-0.134,0.013l-2.139-3.761
	C57.259,97.348,57.419,97.035,57.419,96.682z M56.302,97.846c0.093-0.005,0.185-0.021,0.271-0.045l2.097,3.686
	c-0.332,0.207-0.556,0.573-0.556,0.991c0,0.403,0.204,0.759,0.515,0.971L55,116.2L56.302,97.846z M59.095,103.629
	c0.034,0.005,0.068,0.008,0.104,0.01l1.812,17.025c-0.34,0.04-0.635,0.221-0.821,0.486l-4.46-2.26
	c0.014-0.068,0.021-0.141,0.021-0.211c0-0.454-0.262-0.845-0.64-1.037L59.095,103.629z M61.157,136.07l-5.929-16.42
	c0.118-0.08,0.222-0.182,0.305-0.298l4.461,2.261c-0.012,0.068-0.021,0.137-0.021,0.207c0,0.646,0.523,1.17,1.171,1.17
	c0.004,0,0.009-0.002,0.014-0.002V136.07z M59.693,103.568c0.162-0.062,0.31-0.156,0.429-0.28L71.1,114.634
	c-0.459,0.427-0.749,1.032-0.749,1.708c0,0.205,0.033,0.399,0.084,0.589l-8.229,4.408c-0.133-0.292-0.382-0.516-0.688-0.62
	L59.693,103.568z M61.657,136.628v-13.413l7.868,17.489c-0.108,0.075-0.203,0.171-0.279,0.278l-6.936-3.326
	C62.304,137.204,62.039,136.816,61.657,136.628z M62.336,138.223l6.718,3.226c-0.012,0.065-0.021,0.137-0.021,0.206
	c0,0.646,0.521,1.171,1.17,1.171c0.061,0,0.119-0.011,0.178-0.019l3.162,8.848L62.336,138.223z M74.248,151.725
	c-0.05,0-0.098,0.008-0.145,0.015l-3.257-9.108c0.021-0.015,0.039-0.031,0.062-0.049l12.117,9.689
	c-0.084,0.19-0.132,0.4-0.132,0.625c0,0.016,0.004,0.028,0.005,0.045l-7.504-0.258C75.295,152.137,74.82,151.725,74.248,151.725z
	 M88.219,158.725l-12.668-5.537l7.448,0.256c0.223,0.592,0.788,1.011,1.455,1.011c0.22,0,0.429-0.047,0.618-0.129l3.271,4.25
	C88.298,158.619,88.257,158.67,88.219,158.725z M90.248,158.93c-0.18-0.414-0.593-0.705-1.072-0.705
	c-0.146,0-0.282,0.029-0.41,0.077l-3.273-4.253c0.17-0.152,0.309-0.337,0.396-0.551l11.862,2.479
	c0.017,0.105,0.042,0.209,0.078,0.31L90.248,158.93z M105.755,160.238l-15.123-0.913l7.452-2.601
	c0.285,0.353,0.717,0.582,1.206,0.582c0.387,0,0.737-0.147,1.01-0.384l5.483,3.226C105.771,160.18,105.764,160.209,105.755,160.238z
	 M107.576,159.634c-0.196-0.147-0.438-0.239-0.702-0.239c-0.319,0-0.608,0.129-0.819,0.336l-5.429-3.19
	c0.111-0.188,0.183-0.399,0.206-0.629l13.864-3.504c0.026,0.069,0.062,0.136,0.101,0.198L107.576,159.634z M128.846,153.973
	l-20.936,6.063c-0.004-0.008-0.007-0.014-0.01-0.02l7.213-7.021c0.273,0.244,0.635,0.396,1.031,0.396
	c0.729,0,1.338-0.504,1.508-1.184l11.226,0.861c-0.068,0.149-0.109,0.313-0.109,0.49
	C128.769,153.707,128.797,153.846,128.846,153.973z M129.763,152.41c-0.18,0.027-0.347,0.092-0.489,0.189l-11.582-0.889
	c-0.021-0.26-0.101-0.501-0.231-0.711l20.445-15.479c0.056,0.058,0.116,0.104,0.182,0.152L129.763,152.41z M130.604,152.604
	c-0.093-0.063-0.194-0.11-0.305-0.146l8.231-16.55c0.153,0.05,0.313,0.086,0.485,0.086c0.859,0,1.559-0.699,1.559-1.562
	c0-0.07-0.013-0.141-0.021-0.207l5.173-1.356c-0.046,0.124-0.073,0.255-0.073,0.396c0,0.328,0.137,0.625,0.354,0.838
	L130.604,152.604z M146.08,132.256l-5.672,1.488c-0.096-0.189-0.229-0.357-0.389-0.496l6.436-10.152
	c0.021,0.008,0.043,0.014,0.064,0.021L146.08,132.256z M146.9,132.102c-0.026-0.002-0.053-0.009-0.079-0.009
	c-0.08,0-0.158,0.009-0.234,0.024l0.433-8.979c0.551-0.096,0.972-0.57,0.972-1.15c0-0.332-0.141-0.631-0.364-0.845l3.229-5.638
	L146.9,132.102z M150.33,114.002c0,0.321,0.13,0.611,0.339,0.823l-3.471,6.063c-0.067-0.021-0.137-0.041-0.207-0.051l-1.36-20.42
	c0.031-0.008,0.063-0.02,0.094-0.029l5.152,12.627C150.549,113.223,150.33,113.586,150.33,114.002z"/>
</svg>
