<?xml version="1.0" encoding="utf-8"?>
<!-- Generator: Adobe Illustrator 19.0.0, SVG Export Plug-In . SVG Version: 6.00 Build 0)  -->
<svg version="1.1" id="Ebene_1" xmlns="http://www.w3.org/2000/svg" xmlns:xlink="http://www.w3.org/1999/xlink" x="0px" y="0px"
	 viewBox="-54 276 450 450" style="enable-background:new -54 276 450 450;" xml:space="preserve">
<style type="text/css">
	.st0{fill:#333;}
	.st1{fill:none;stroke:#333;stroke-width:27;stroke-miterlimit:10;}
</style>
<g>
	<path class="st0" d="M149.5,320.7c34.2,0,66.3,7.8,93,22.5c28.5,15.6,49.2,38.4,61.5,67.2c15.3,35.4,14.1,68.4-3.3,98.1
		c-25.8,43.8-81.3,71.4-123,75.6c-5.4,0.6-11.4,0.9-17.7,0.9c-32.7,0-67.2-6.9-67.5-7.2l-12-2.7l-10.2,6.6
		c-1.2,0.6-18,10.8-49.2,20.7c-7.8,2.4-15.3,4.8-22.5,6.6l15.3-52.2l3.6-12.6l-6.9-11.4c-0.3-0.6-43.5-74.4-13.8-134.7
		C19.9,351.9,81.1,320.7,149.5,320.7 M149.5,290.7c-75,0-149.4,33.6-179.4,94.2c-37.8,76.5,15,163.5,15,163.5l-30,102
		c0,0,33.3-6.3,75-19.5c37.2-11.7,56.4-24,56.4-24s37.2,7.8,73.8,7.8c7.2,0,14.1-0.3,20.7-0.9c81.9-8.4,204-90.3,150.6-215.4
		C300.1,324.3,224.5,290.7,149.5,290.7L149.5,290.7z"/>
</g>
<path class="st1" d="M141.1,592.5c0,0,10.2,61.8,74.4,80.4c48.9,14.1,82.5,2.4,82.5,2.4c20.1,10.5,68.4,21,68.4,21l-15.6-52.8
	c0,0,24.3-30,20.1-61.8c-8.4-66.6-54.9-74.4-54.9-74.4"/>
</svg>
