<?xml version="1.0" encoding="utf-8"?>
<!-- Generator: Adobe Illustrator 16.0.0, SVG Export Plug-In . SVG Version: 6.00 Build 0)  -->
<!DOCTYPE svg PUBLIC "-//W3C//DTD SVG 1.1//EN" "http://www.w3.org/Graphics/SVG/1.1/DTD/svg11.dtd">
<svg version="1.1" id="Layer_1" xmlns="http://www.w3.org/2000/svg" xmlns:xlink="http://www.w3.org/1999/xlink" x="0px" y="0px"
	 width="128px" height="128px" viewBox="0 0 128 128" enable-background="new 0 0 128 128" xml:space="preserve">
<path fill="#333" d="M65.221,13.278h0.11c-0.11-4.361-3.701-7.63-8.07-7.63c-3.595,0-6.539,2.398-7.63,5.561
	c-1.091-0.655-2.398-0.871-3.815-0.871c-4.467,0-8.065,3.596-8.065,8.171c0,1.311,0.326,2.619,0.871,3.709c-0.326,0-0.545,0-0.871,0
	c-4.47,0-8.065,3.595-8.065,8.065c0,2.289,0.981,4.361,2.398,5.777c-3.815,1.523-6.433,5.233-6.433,9.593
	c0,4.576,3.054,8.501,7.194,9.808c-0.871,1.527-1.307,3.159-1.307,5.011c0,5.672,4.58,10.358,10.354,10.358
	c1.091,0,2.183-0.22,3.164-0.432c0.871,4.787,5.122,8.392,10.137,8.392c5.661,0,10.35-4.693,10.35-10.355c0-0.113,0-0.328,0-0.328
	h-0.321V13.278z M63.038,65.603H62.61l0.096,2.608c0,0.111,0,0.111,0,0.111c0,4.141-3.373,7.525-7.623,7.525
	c-3.706,0-6.869-2.619-7.521-6.217l-0.545-3.047l-2.943,0.871c-0.766,0.213-1.527,0.322-2.289,0.322c-4.25,0-7.63-3.378-7.63-7.629
	c0-1.307,0.326-2.613,0.981-3.705l1.633-2.834l-3.159-0.871c-3.164-0.982-5.232-3.925-5.232-7.305c0-3.16,1.853-5.887,4.796-7.084
	l3.815-1.527l-3.053-2.833c-1.091-0.981-1.633-2.398-1.633-3.815c0-2.944,2.395-5.452,5.448-5.452c0.219,0,0.326,0,0.545,0
	l4.905,0.546l-2.292-4.467c-0.436-0.765-0.542-1.636-0.542-2.398c0-2.944,2.397-5.451,5.448-5.451c0.871,0,1.746,0.219,2.508,0.654
	l2.834,1.523l0.981-2.94c0.761-2.182,2.834-3.599,5.122-3.599c2.943,0,5.445,2.288,5.555,5.231l0.222,0.436V65.603z"/>
<path fill="#333" d="M108.165,45.434c0-4.36-2.613-8.065-6.428-9.592c1.521-1.417,2.394-3.49,2.394-5.778
	c0-4.467-3.595-8.065-8.068-8.065c-0.323,0-0.543,0-0.874,0c0.551-1.092,0.874-2.288,0.874-3.596c0-4.47-3.598-8.065-8.063-8.065
	c-1.423,0-2.724,0.326-3.815,0.978c-1.091-3.16-4.146-5.667-7.629-5.667c-4.366,0-7.961,3.269-8.071,7.63l0,0v54.499h-0.109
	c0,0,0,0.221,0,0.33c0,5.668,4.585,10.354,10.363,10.354c5.006,0,9.262-3.595,10.134-8.398c0.979,0.337,2.07,0.439,3.162,0.439
	c5.668,0,10.354-4.577,10.354-10.354c0-1.853-0.439-3.49-1.312-5.012C105.111,53.935,108.165,50.01,108.165,45.434z M100.095,52.739
	L96.94,53.72l1.632,2.833c0.652,1.087,0.981,2.398,0.981,3.705c0,4.248-3.384,7.628-7.629,7.628c-0.761,0-1.532-0.109-2.293-0.322
	l-2.942-0.879l-0.541,3.055c-0.652,3.598-3.815,6.218-7.521,6.218c-4.256,0-7.629-3.384-7.629-7.636c0-0.111,0,0,0,0l0.109-2.609
	h-0.441V14.043l0.222-0.33c0.11-2.939,2.502-5.231,5.447-5.231c2.292,0,4.365,1.417,5.126,3.598l1.091,2.944l2.833-1.526
	c0.763-0.437,1.633-0.656,2.504-0.656c2.943,0,5.447,2.398,5.447,5.451c0,0.872-0.211,1.633-0.541,2.398l-2.292,4.577l4.906-0.546
	c0.22,0,0.438,0,0.551,0c2.942,0,5.446,2.398,5.446,5.452c0,1.417-0.548,2.833-1.632,3.815l-2.944,2.833l3.814,1.527
	c2.833,1.197,4.797,3.924,4.797,7.084C105.442,48.813,103.259,51.647,100.095,52.739z"/>
<path fill="#333" d="M81.571,98.297v9.812h-4.365v3.267h-1.302h-2.833l-1.203,2.622c-0.76,1.741-2.512,2.942-4.465,2.942
	c-1.962,0-3.717-1.091-4.476-2.942l-1.204-2.622h-2.825H57.59v-3.267h-4.36l0,0v-9.812H81.571 M83.094,93.94h-31.28
	c-1.854,0-2.944,0.982-2.944,2.944v11.765c0,2.073,1.09,3.925,3.159,3.925h1.201c0,2.183,1.197,3.274,2.724,3.274h2.944
	c1.416,3.266,4.677,5.558,8.505,5.558c3.807,0,6.969-2.292,8.501-5.558h3.043c1.532,0,2.733-1.092,2.733-3.274h1.193
	c2.071,0,3.053-1.742,3.053-3.814V96.885C85.927,94.923,84.945,93.94,83.094,93.94L83.094,93.94z"/>
<path fill="#333" d="M66.312,9.138c0.321,0,0.65,0,0.981,0c0.872-1.743,2.283-3.161,4.025-4.142
	c-1.302-0.11-2.612-0.219-3.915-0.219c-1.643,0-3.274,0.109-4.903,0.326C64.129,6.084,65.441,7.395,66.312,9.138z"/>
<path fill="#333" d="M93.337,72.684c-0.431,0-0.872,0.109-1.412,0.109c-0.551,0-1.092,0-1.633-0.109
	c-1.311,3.485-4.144,6.429-7.63,7.63c-1.2,2.396-2.183,4.906-2.942,7.089H54.973c-0.656-2.183-1.637-4.365-2.834-6.759
	c-4.035-0.98-7.304-3.925-8.831-7.851c-0.542,0.106-1.086,0-1.632,0c-0.11,0-0.22,0.216-0.326,0.216
	c6.104,6.544,9.046,13.303,10.354,18.749h31.281v-0.33C84.295,86.421,87.239,79.332,93.337,72.684z"/>
<path fill="#333" d="M23.692,42.71H3.091C2.436,42.71,2,43.146,2,43.797c0,0.656,0.436,1.092,1.091,1.092h20.382
	C23.473,44.127,23.582,43.472,23.692,42.71z"/>
<path fill="#333" d="M30.667,22.545l-18.859-10.79c-0.542-0.33-1.197-0.11-1.523,0.436c-0.33,0.542,0,1.087,0.436,1.417
	l18.529,10.68C29.686,23.635,30.121,23.09,30.667,22.545z"/>
<path fill="#333" d="M119.5,12.081c-0.331-0.545-0.981-0.655-1.522-0.436l-16.682,9.592c0.652,0.436,1.313,0.872,1.854,1.417
	l15.912-9.156C119.61,13.278,119.829,12.626,119.5,12.081z"/>
<path fill="#333" d="M126.801,42.71h-16.784c0.112,0.761,0.222,1.417,0.332,2.178h16.56c0.655,0,1.092-0.436,1.092-1.092
	C128,43.146,127.459,42.71,126.801,42.71z"/>
<path fill="#333" d="M119.169,73.009l-15.367-8.826c-0.211,0.651-0.543,1.419-0.874,2.065l15.05,8.729
	c0.541,0.321,1.191,0.101,1.522-0.44C119.829,73.995,119.61,73.338,119.169,73.009z"/>
<path fill="#333" d="M29.466,62.22L10.721,73.009c-0.546,0.329-0.655,0.986-0.436,1.527c0.216,0.541,0.981,0.65,1.523,0.44
	l18.097-10.471C29.686,63.747,29.575,62.981,29.466,62.22z"/>
<path fill="#333" d="M47.779,49.685c-1.853,4.796,0.436,8.286,1.307,9.372c-3.485,2.838-3.814,8.282-3.814,8.611
	c0,0.654,0.435,1.092,0.981,1.201c0,0,0,0,0.11,0c0.545,0,1.091-0.434,1.091-0.982c0,0,0.325-5.341,3.484-7.414
	c1.637-1.086,3.925-1.086,6.653,0c0.542,0.22,1.198-0.105,1.418-0.65c0.214-0.546-0.11-1.202-0.656-1.417
	c-2.834-1.091-5.342-1.201-7.415-0.33V57.97c0,0-3.705-3.925,0.11-9.483c0.329-0.436,0.221-0.98-0.11-1.311
	c-0.325-0.326-0.871-0.435-1.306-0.215c-6.323,3.379-13.623-2.729-13.623-2.729c-0.437-0.436-1.091-0.325-1.527,0.11
	c-0.435,0.436-0.326,1.091,0.109,1.527C34.808,45.87,41.13,51.211,47.779,49.685z"/>
<path fill="#333" d="M62.928,38.896c-0.317-0.437-1.094-0.546-1.522-0.221c-2.728,1.963-5.341,2.724-7.849,2.073
	c-0.762-0.221-1.527-0.546-2.179-0.982c3.161-2.397,5.123-5.342,5.668-8.721c1.197-6.212-2.618-11.554-2.729-11.771
	c-0.325-0.436-0.981-0.655-1.522-0.22c-0.545,0.33-0.655,0.982-0.22,1.527c0,0,3.379,4.796,2.398,10.138
	c-0.546,2.943-2.398,5.557-5.452,7.739c-2.613-2.398-4.141-5.451-4.141-5.561c-0.216-0.546-0.871-0.761-1.417-0.546
	c-0.545,0.22-0.762,0.875-0.545,1.417c0.11,0.221,2.288,4.796,6.213,7.415c0.981,0.655,2.183,1.197,3.379,1.527
	c3.164,0.871,6.434,0,9.696-2.398C63.148,39.982,63.259,39.331,62.928,38.896z"/>
<path fill="#333" d="M85.707,49.685c1.852,4.796-0.431,8.286-1.303,9.372c3.485,2.838,3.815,8.282,3.815,8.611
	c0,0.654-0.439,1.092-0.98,1.201c0,0,0,0-0.111,0c-0.551,0-1.092-0.434-1.092-0.982c0,0-0.329-5.341-3.483-7.414
	c-1.642-1.086-3.925-1.086-6.648,0c-0.55,0.22-1.2-0.105-1.422-0.65c-0.22-0.546,0.109-1.202,0.65-1.417
	c2.835-1.091,5.347-1.201,7.42-0.33V57.97c0,0,3.705-3.925-0.109-9.483c-0.331-0.436-0.222-0.98,0.109-1.311
	c0.321-0.326,0.872-0.435,1.301-0.215c6.329,3.379,13.628-2.729,13.628-2.729c0.44-0.436,1.091-0.325,1.524,0.11
	c0.438,0.436,0.329,1.091-0.103,1.527C98.685,45.87,92.355,51.211,85.707,49.685z"/>
<path fill="#333" d="M70.558,38.896c0.331-0.437,1.092-0.546,1.532-0.221c2.724,1.963,5.337,2.724,7.84,2.073
	c0.771-0.221,1.532-0.546,2.183-0.982c-3.165-2.397-5.126-5.342-5.667-8.721c-1.201-6.212,2.614-11.554,2.724-11.771
	c0.329-0.436,0.981-0.655,1.532-0.22c0.541,0.33,0.65,0.982,0.21,1.527c0,0-3.374,4.796-2.393,10.138
	c0.541,2.943,2.393,5.557,5.447,7.739c2.611-2.398,4.144-5.451,4.144-5.561c0.222-0.546,0.872-0.761,1.413-0.546
	c0.551,0.22,0.77,0.875,0.551,1.417c-0.11,0.221-2.293,4.796-6.22,7.415c-0.979,0.655-2.173,1.197-3.374,1.527
	c-3.164,0.871-6.429,0-9.702-2.398C70.338,39.982,70.236,39.331,70.558,38.896z"/>
</svg>
