<?xml version="1.0" encoding="utf-8"?>
<!-- Generator: Adobe Illustrator 16.0.0, SVG Export Plug-In . SVG Version: 6.00 Build 0)  -->
<!DOCTYPE svg PUBLIC "-//W3C//DTD SVG 1.1//EN" "http://www.w3.org/Graphics/SVG/1.1/DTD/svg11.dtd">
<svg version="1.1" id="Layer_1" xmlns="http://www.w3.org/2000/svg" xmlns:xlink="http://www.w3.org/1999/xlink" x="0px" y="0px"
	 width="500px" height="500px" viewBox="0 0 500 500" enable-background="new 0 0 500 500" xml:space="preserve">
<path id="Red" fill="#E72E29" d="M131.333,295.558c-19.5-41.944,0-92.433,0-92.433c-53.125-57.292-101.042-23.958-101.042-23.958
	S6.25,272.414,34.375,332.291c0,0,20.833-54.166,96.875-36.457"/>
<path id="Grey" fill="#A8A8A9" d="M296.666,369.834c-58.584,19.334-90.458,0-90.458,0c-57.292,53.124-23.958,101.041-23.958,101.041
	c69,24.125,151.045-5.083,151.045-5.083h0.038c0,0-54.167-20.834-36.458-96.876"/>
<path id="Blue" fill="#34A0D9" d="M467.63,171.631c0,0,26.621,67.041,2.912,148.121v0.109c0,0-47.916,33.334-101.041-23.957
	c17.668-43.262,1-87.814,1-87.814c76.042,17.708,96.875-36.458,96.875-36.458"/>
<path id="Yellow" fill="#F3AF1C" d="M324.841,32.657c-68.659-28.676-154.008,0-154.008,0v0.676c0,0,54.167,20.833,36.458,96.875
	c50.124-19.124,92.709,2.083,92.709,2.083C357.291,79.167,323.958,31.25,323.958,31.25"/>
<g id="Outline">
	<circle id="Inner" fill="none" stroke="#333" stroke-width="22" stroke-miterlimit="10" cx="250" cy="250" r="127.084"/>
	<path id="Outer" fill="none" stroke="#333" stroke-width="22" stroke-miterlimit="10" d="M250,18.75
		c127.716,0,231.25,103.534,231.25,231.25S377.716,481.25,250,481.25c-99.926,0-185.049-63.38-217.361-152.133
		C23.653,304.435,18.75,277.79,18.75,250C18.75,122.284,122.284,18.75,250,18.75z"/>
</g>
</svg>
