<?xml version="1.0" encoding="utf-8"?>
<!-- Generator: Adobe Illustrator 16.0.0, SVG Export Plug-In . SVG Version: 6.00 Build 0)  -->
<!DOCTYPE svg PUBLIC "-//W3C//DTD SVG 1.1//EN" "http://www.w3.org/Graphics/SVG/1.1/DTD/svg11.dtd">
<svg version="1.1" id="Layer_1" xmlns="http://www.w3.org/2000/svg" xmlns:xlink="http://www.w3.org/1999/xlink" x="0px" y="0px"
	 width="512px" height="512px" viewBox="0 0 512 512" enable-background="new 0 0 512 512" xml:space="preserve">
<g>
	<defs>
		<rect id="SVGID_1_" width="512" height="512"/>
	</defs>
	<clipPath id="SVGID_2_">
		<use xlink:href="#SVGID_1_"  overflow="visible"/>
	</clipPath>
	<path clip-path="url(#SVGID_2_)" fill="#333333" d="M255.734,3.183c14.175,0,28.821,1.417,42.997,3.779v38.746v14.176l13.703,3.779
		c13.705,4.254,26.934,9.45,39.217,16.067l12.288,6.615l9.921-9.923l27.404-27.404c23.627,16.538,44.417,37.328,60.955,60.953
		l-27.403,27.404l-9.925,9.923l6.615,12.285c6.612,12.286,12.283,25.515,16.063,39.217l3.783,13.703h14.176h38.741
		c2.361,14.176,3.783,28.823,3.783,43s-1.422,28.822-3.783,42.996h-38.271h-14.176l-3.778,13.704
		c-4.255,13.699-9.449,26.93-16.067,39.218l-6.611,12.282l9.921,9.926l27.405,27.404c-16.54,23.626-37.326,44.412-60.952,60.949
		l-27.408-27.403l-9.922-9.92l-12.282,6.612c-12.288,6.618-25.518,12.288-39.223,16.066l-13.699,3.779v14.177v38.746
		c-14.176,2.361-28.825,3.777-43.001,3.777c-14.175,0-28.82-1.416-42.996-3.777v-38.746v-14.177l-13.703-3.779
		c-13.701-4.255-26.933-9.448-39.219-16.066l-12.284-6.612l-9.923,9.92l-27.406,27.403c-23.625-16.537-44.415-37.323-60.953-60.949
		l27.407-27.404l9.921-9.926l-6.615-12.282c-6.615-12.288-12.286-25.519-16.065-39.218l-3.778-13.704H46.416H7.67
		c-3.309-13.704-4.725-28.35-4.725-42.526c0-14.174,1.416-28.822,3.778-42.997H45.47h14.176l3.779-13.703
		c4.254-13.702,9.45-26.933,16.066-39.216l6.615-12.286l-9.923-9.923l-27.404-27.405c16.537-23.625,37.327-44.417,60.952-60.955
		l27.405,27.407l9.923,9.923l12.286-6.617c12.286-6.614,25.515-12.283,39.217-16.064l13.702-3.78V46.182V7.435
		C226.911,4.6,241.56,3.183,255.734,3.183"/>
</g>
<g id="Outline">
	<path id="Outer" fill="#FFFFFF" d="M256,84c94.992,0,172,77.007,172,172c0,94.992-77.008,172-172,172
		c-74.323,0-137.636-47.142-161.67-113.154C87.646,296.488,84,276.669,84,256C84,161.007,161.007,84,256,84z"/>
</g>
<g>
	<defs>
		<rect id="SVGID_3_" width="512" height="512"/>
	</defs>
	<clipPath id="SVGID_4_">
		<use xlink:href="#SVGID_3_"  overflow="visible"/>
	</clipPath>
</g>
<g>
	<defs>
		<rect id="SVGID_5_" width="512" height="512"/>
	</defs>
	<clipPath id="SVGID_6_">
		<use xlink:href="#SVGID_5_"  overflow="visible"/>
	</clipPath>
	<path clip-path="url(#SVGID_6_)" fill="#F3AF1C" stroke="#F3AF1C" stroke-width="8" stroke-miterlimit="10" d="M198.354,279.107
		c0-2.801-0.463-5.365-1.395-7.708c-0.939-2.328-2.271-4.359-4.009-6.101c-1.742-1.742-3.844-3.08-6.298-4.011
		c-2.469-0.942-5.175-1.409-8.153-1.409v-7.758c2.979,0,5.685-0.459,8.153-1.398c2.458-0.932,4.56-2.272,6.298-4.009
		c1.737-1.738,3.069-3.781,4.009-6.11c0.931-2.33,1.395-4.898,1.395-7.708c0-4.663-0.397-9.201-1.212-13.62
		c-0.803-4.407-1.667-8.816-2.606-13.231c-0.932-4.41-1.804-8.845-2.603-13.313c-0.802-4.452-1.211-9.053-1.211-13.806
		c0-5.171,0.811-9.971,2.42-14.381c1.614-4.41,3.943-8.257,7-11.518c3.053-3.276,6.818-5.812,11.274-7.649
		c4.45-1.82,9.479-2.735,15.081-2.735h7.004v5.349c0,0.932-0.364,1.655-1.089,2.165c-0.729,0.504-1.426,0.766-2.109,0.766h-4.191
		c-3.652,0-6.983,0.632-9.999,1.907c-3.018,1.271-5.594,3.099-7.757,5.478c-2.166,2.375-3.869,5.262-5.098,8.651
		c-1.237,3.396-1.845,7.17-1.845,11.332c0,4.84,0.38,9.544,1.145,14.133c0.757,4.579,1.61,9.102,2.542,13.553
		c0.934,4.457,1.783,8.92,2.543,13.376c0.77,4.455,1.151,8.927,1.151,13.425c0,3.136-0.537,6.028-1.597,8.659
		c-1.056,2.636-2.462,4.919-4.2,6.872c-1.738,1.958-3.74,3.583-5.982,4.904c-2.246,1.314-4.596,2.266-7.066,2.867
		c2.47,0.506,4.82,1.418,7.066,2.736c2.251,1.311,4.245,2.971,5.982,4.965c1.737,1.992,3.144,4.284,4.2,6.874
		c1.06,2.586,1.597,5.447,1.597,8.589c0,4.498-0.385,8.971-1.151,13.436c-0.767,4.453-1.612,8.932-2.543,13.43
		c-0.935,4.495-1.788,9.029-2.542,13.617c-0.768,4.576-1.145,9.256-1.145,13.996c0,4.167,0.607,7.937,1.845,11.332
		c1.231,3.4,2.932,6.277,5.098,8.659c2.163,2.375,4.74,4.199,7.757,5.475c3.016,1.273,6.347,1.906,9.999,1.906h4.191
		c0.683,0,1.38,0.261,2.109,0.771c0.725,0.504,1.089,1.231,1.089,2.159v5.346h-7.004c-5.602,0-10.625-0.914-15.081-2.736
		c-4.452-1.823-8.216-4.373-11.274-7.637c-3.057-3.276-5.39-7.112-7-11.526c-1.609-4.414-2.42-9.201-2.42-14.381
		c0-4.759,0.409-9.354,1.211-13.805c0.799-4.461,1.671-8.892,2.603-13.307c0.939-4.409,1.804-8.824,2.606-13.235
		C197.957,288.313,198.354,283.771,198.354,279.107z"/>
</g>
<g>
	<defs>
		<rect id="SVGID_7_" width="512" height="512"/>
	</defs>
	<clipPath id="SVGID_8_">
		<use xlink:href="#SVGID_7_"  overflow="visible"/>
	</clipPath>
	<path clip-path="url(#SVGID_8_)" fill="#F3AF1C" stroke="#F3AF1C" stroke-width="6" stroke-miterlimit="10" d="M313.721,279.17
		c0,4.674,0.41,9.227,1.21,13.652c0.805,4.422,1.681,8.852,2.613,13.272c0.933,4.426,1.809,8.871,2.613,13.334
		c0.809,4.463,1.219,9.075,1.219,13.844c0,5.189-0.809,9.991-2.426,14.414c-1.618,4.425-3.953,8.277-7.018,11.554
		c-3.057,3.273-6.827,5.827-11.294,7.661c-4.471,1.823-9.51,2.741-15.121,2.741H278.5v-5.358c0-0.938,0.344-1.663,1.027-2.169
		c0.668-0.507,1.398-0.768,2.162-0.768h4.214c3.658,0,7.001-0.64,10.02-1.913c3.016-1.281,5.608-3.105,7.777-5.487
		c2.169-2.392,3.881-5.273,5.108-8.684c1.232-3.405,1.851-7.183,1.851-11.359c0-4.753-0.382-9.44-1.152-14.027
		c-0.764-4.6-1.61-9.153-2.556-13.657c-0.933-4.509-1.783-8.996-2.538-13.459c-0.768-4.479-1.157-8.963-1.157-13.471
		c0-3.141,0.51-6.014,1.542-8.614c1.021-2.592,2.398-4.886,4.145-6.894c1.742-1.995,3.74-3.658,5.993-4.974
		c2.247-1.319,4.62-2.234,7.084-2.741c-2.464-0.605-4.837-1.559-7.084-2.873c-2.253-1.324-4.251-2.954-5.993-4.916
		c-1.746-1.953-3.131-4.246-4.145-6.884c-1.023-2.638-1.542-5.538-1.542-8.681c0-4.508,0.394-8.996,1.157-13.458
		c0.759-4.466,1.609-8.942,2.538-13.409c0.95-4.466,1.796-8.996,2.556-13.587c0.774-4.599,1.152-9.311,1.152-14.167
		c0-4.177-0.618-7.956-1.851-11.36c-1.231-3.396-2.936-6.296-5.108-8.672c-2.169-2.389-4.762-4.218-7.777-5.496
		c-3.023-1.277-6.361-1.912-10.02-1.912h-4.214c-0.768,0-1.485-0.257-2.162-0.767c-0.684-0.511-1.027-1.236-1.027-2.169v-5.358
		h7.018c5.619,0,10.65,0.916,15.121,2.741c4.463,1.837,8.232,4.384,11.294,7.665c3.073,3.272,5.412,7.125,7.018,11.546
		c1.617,4.426,2.426,9.232,2.426,14.417c0,4.77-0.41,9.378-1.219,13.844c-0.805,4.475-1.681,8.917-2.613,13.343
		c-0.942,4.421-1.809,8.85-2.613,13.263c-0.8,4.434-1.21,8.988-1.21,13.654c0,2.815,0.472,5.392,1.405,7.731
		s2.272,4.384,4.023,6.125c1.737,1.742,3.828,3.085,6.254,4.019c2.422,0.938,5.123,1.402,8.097,1.402v7.777
		c-2.974,0-5.675,0.474-8.097,1.415c-2.426,0.933-4.517,2.271-6.254,4.018c-1.751,1.742-3.09,3.778-4.023,6.113
		C314.197,273.785,313.721,276.361,313.721,279.17z"/>
</g>
</svg>
