<?xml version="1.0" encoding="utf-8"?>
<!-- Generator: Adobe Illustrator 16.0.0, SVG Export Plug-In . SVG Version: 6.00 Build 0)  -->
<!DOCTYPE svg PUBLIC "-//W3C//DTD SVG 1.1//EN" "http://www.w3.org/Graphics/SVG/1.1/DTD/svg11.dtd">
<svg version="1.1" xmlns="http://www.w3.org/2000/svg" xmlns:xlink="http://www.w3.org/1999/xlink" x="0px" y="0px" width="450px"
	 height="450px" viewBox="0 0 450 450" enable-background="new 0 0 450 450" xml:space="preserve">
<g id="Layer_3">
	<ellipse fill="#003B00" stroke="#FFFFFF" stroke-miterlimit="10" cx="224.818" cy="225.429" rx="143.887" ry="141.181"/>
	<path fill="#001B2A" stroke="#FFFFFF" stroke-miterlimit="10" d="M342.317,224.605c0,63.57-52.525,115.106-117.312,115.106
		c-64.791,0-117.313-51.536-117.313-115.106S160.215,109.5,225.006,109.5C289.792,109.5,342.317,161.035,342.317,224.605z"/>
	<path fill="#600000" stroke="#FFFFFF" stroke-miterlimit="10" d="M316.17,225.799c0,50.164-40.67,90.832-90.831,90.832
		c-50.166,0-90.833-40.668-90.833-90.832c0-50.165,40.667-90.832,90.833-90.832C275.5,134.967,316.17,175.634,316.17,225.799z"/>
	<circle fill="#FFFFFF" cx="225.002" cy="225.463" r="67.035"/>
</g>
<g id="Layer_2">
	<circle fill="#946E00" stroke="#FFFFFF" stroke-miterlimit="10" cx="225.5" cy="225" r="67.75"/>
</g>
<g id="Layer_1">
	<g id="Layer_4">
	</g>
	<circle fill="#FFFFFF" cx="225.552" cy="225.448" r="45.302"/>
</g>
</svg>
